<mxfile host="app.diagrams.net" modified="2023-05-30T01:28:14.696Z" agent="Mozilla/5.0 (Windows NT 10.0; Win64; x64; rv:109.0) Gecko/20100101 Firefox/113.0" etag="3VmIL2ZitQYwfrw0RcMa" version="21.3.2" type="github">
  <diagram name="Page-1" id="Omv9CnH5hdXk-dYv_I7Q">
    <mxGraphModel dx="1050" dy="566" grid="1" gridSize="10" guides="1" tooltips="1" connect="1" arrows="1" fold="1" page="1" pageScale="1" pageWidth="827" pageHeight="1169" math="0" shadow="0">
      <root>
        <mxCell id="0" />
        <mxCell id="1" parent="0" />
        <mxCell id="6rrhqaZMcI5MTbuSoSsv-1" value="&lt;div&gt;&lt;br&gt;&lt;/div&gt;&lt;div&gt;Ship Battle use cases.&lt;/div&gt;&lt;div&gt;&lt;br&gt;&lt;/div&gt;&lt;div&gt;&lt;b&gt;1. Game Module&lt;/b&gt;&lt;/div&gt;&lt;div&gt;&amp;nbsp;- Player can start finding game&lt;/div&gt;&lt;div&gt;&amp;nbsp;- Player get notified when a game is found, they can decide to join or not join the game.&lt;/div&gt;&lt;div&gt;&amp;nbsp;- Player can create new game&lt;/div&gt;&lt;div&gt;&amp;nbsp;- Player can invite friends to new game.&lt;/div&gt;&lt;div&gt;&amp;nbsp;- Player will be in a lounge when join a game.&lt;/div&gt;&lt;div&gt;&amp;nbsp;- Every player in the lounge will have an amount of time to draw ships on a board.&lt;/div&gt;&lt;div&gt;&amp;nbsp;- If any of the player is unable to draw enough ships within the amount time. Game will be canceled and the player will be back to main screen.&lt;br&gt;&lt;/div&gt;&lt;div&gt;&amp;nbsp;- In the game, an random player will be chosen to make the first move.&lt;/div&gt;&lt;div&gt;&amp;nbsp;- Every player will have an amount of time to make a move.&lt;/div&gt;&lt;div&gt;&amp;nbsp;- The player will be eliminated if they don&#39;t make a move within the given time.&lt;/div&gt;&lt;div&gt;&amp;nbsp;- The player can pass the move.&lt;/div&gt;&lt;div&gt;&amp;nbsp;- In a move, player can select a position on board to fire.&lt;br&gt;&lt;/div&gt;" style="text;html=1;strokeColor=none;fillColor=none;spacing=5;spacingTop=-20;whiteSpace=wrap;overflow=hidden;rounded=0;rotation=0;fontSize=17;" vertex="1" parent="1">
          <mxGeometry x="49" y="55" width="630" height="430" as="geometry" />
        </mxCell>
      </root>
    </mxGraphModel>
  </diagram>
</mxfile>
